# xmcd
# Track frame offsets:
# 150
# 21131
# 38091
# 59603
# 73894
# 88145
# 98534
# 111840
#
# Disc length: 1676 seconds
# Revision: 0
# Processed by: cddbd v1.5.1PL2 Copyright (c) Steve Scherf et al.
# Submitted via: VisiTrax 2.9.10.228 - For more info visit www.synapsa.com
#
DISCID=68068a08
DTITLE=Various Artist - AIR Sampler #62 Country
DYEAR=1900
DGENRE=
TTITLE0=Sam Buckingham (Yellow Brick Records) - Stormy Ground
TTITLE1=Paul Hicks (Buffalo River Records) - If It Sounds Good  (It's Alright)
TTITLE2=Gemma Doyle (Raven Records) - Permission To Breath
TTITLE3=Rod Dowsett (Independent) - Killin Time
TTITLE4=Future Nutive (Revelation) - Superman
TTITLE5=Nester Lou and Slim Knackers (Independent) - Perfect Pub Love
TTITLE6=Popper Mono (Independent) - Partner
TTITLE7=Louise Steding ( Elengy Music/Jaynie Records) - Summerfly
EXTD=
EXTT0=
EXTT1=
EXTT2=
EXTT3=
EXTT4=
EXTT5=
EXTT6=
EXTT7=
PLAYORDER=
